<svg xmlns="http://www.w3.org/2000/svg" xmlns:xlink="http://www.w3.org/1999/xlink" version="1.1" x="0px" y="0px" viewBox="0 0 98 122.5" style="enable-background:new 0 0 98 98;" xml:space="preserve"><title>04</title><path d="M72.1,48.2L49,9.3L25.9,48.2l10.6,24h-9v16.5h43V72.2h-9L72.1,48.2z M54.9,44.8c0,3.3-2.6,5.9-5.9,5.9  c-3.3,0-5.9-2.6-5.9-5.9c0,0,0-0.1,0-0.1c0.1-3.2,2.7-5.8,5.9-5.8C52.3,38.9,54.9,41.5,54.9,44.8z M28.1,48.3L48,14.9v22  c-4.3,0.6-7.4,4.5-6.8,8.8c0.6,4.3,4.5,7.4,8.8,6.8c4.3-0.6,7.4-4.5,6.8-8.8c-0.5-3.6-3.3-6.4-6.8-6.8v-22l19.9,33.4L59.3,72.2H38.7  L28.1,48.3z M68.5,74.2v12.5h-39V74.2H68.5z"/><text x="0" y="113" fill="#000000" font-size="5px" font-weight="bold" font-family="'Helvetica Neue', Helvetica, Arial-Unicode, Arial, Sans-serif">Created by Alax</text><text x="0" y="118" fill="#000000" font-size="5px" font-weight="bold" font-family="'Helvetica Neue', Helvetica, Arial-Unicode, Arial, Sans-serif">from the Noun Project</text></svg>